HIERARCHY
ROOT Hips
{
	OFFSET -3.958830 18.904000 13.208200
	CHANNELS 6 Xposition Yposition Zposition Zrotation Yrotation Xrotation 
	JOINT LHipJoint
	{
		OFFSET 0.000000 0.000000 0.000000
		CHANNELS 3 Zrotation Yrotation Xrotation
		JOINT LeftUpLeg
		{
			OFFSET 1.800000 -1.400000 0.085000
			CHANNELS 3 Zrotation Yrotation Xrotation
			JOINT LeftLeg
			{
				OFFSET 2.215000 -6.000000 0.000000
				CHANNELS 3 Zrotation Yrotation Xrotation
				JOINT LeftFoot
				{
					OFFSET 2.500000 -6.900000 0.000000
					CHANNELS 3 Zrotation Yrotation Xrotation
					JOINT LeftToeBase
					{
						OFFSET 0.200000 -0.500000 1.950000
						CHANNELS 3 Zrotation Yrotation Xrotation
						End Site
						{
							OFFSET 0.000000 0.000000 0.000000
						}
					}
				}
			}
		}
	}
	JOINT RHipJoint
	{
		OFFSET 0.000000 0.000000 0.000000
		CHANNELS 3 Zrotation Yrotation Xrotation
		JOINT RightUpLeg
		{
			OFFSET -1.800000 -1.400000 0.085000
			CHANNELS 3 Zrotation Yrotation Xrotation
			JOINT RightLeg
			{
				OFFSET -2.215000 -6.000000 0.000000
				CHANNELS 3 Zrotation Yrotation Xrotation
				JOINT RightFoot
				{
					OFFSET -2.500000 -6.900000 0.000000
					CHANNELS 3 Zrotation Yrotation Xrotation
					JOINT RightToeBase
					{
						OFFSET -0.200000 -0.500000 1.950000
						CHANNELS 3 Zrotation Yrotation Xrotation
						End Site
						{
							OFFSET 0.000000 0.000000 0.000000
						}
					}
				}
			}
		}
	}
	JOINT LowerBack
	{
		OFFSET 0.000000 0.000000 0.000000
		CHANNELS 3 Zrotation Yrotation Xrotation
		JOINT Spine
		{
			OFFSET -0.087000 1.940000 -0.288900
			CHANNELS 3 Zrotation Yrotation Xrotation
			JOINT Spine1
			{
				OFFSET 0.000000 1.950000 0.060000
				CHANNELS 3 Zrotation Yrotation Xrotation
				JOINT Neck
				{
					OFFSET 0.000000 0.000000 0.000000
					CHANNELS 3 Zrotation Yrotation Xrotation
					JOINT Neck1
					{
						OFFSET 0.000000 1.600000 0.340000
						CHANNELS 3 Zrotation Yrotation Xrotation
						JOINT Head
						{
							OFFSET 0.000000 1.667000 -0.240000
							CHANNELS 3 Zrotation Yrotation Xrotation
							End Site
							{
								OFFSET 0.000000 0.000000 0.000000
							}
						}
					}
				}
				JOINT LeftShoulder
				{
					OFFSET 0.000000 0.000000 0.000000
					CHANNELS 3 Zrotation Yrotation Xrotation
					JOINT LeftArm
					{
						OFFSET 2.700000 1.550000 -0.730000
						CHANNELS 3 Zrotation Yrotation Xrotation
						JOINT LeftForeArm
						{
							OFFSET 5.450000 0.000000 0.000000
							CHANNELS 3 Zrotation Yrotation Xrotation
							JOINT LeftHand
							{
								OFFSET 3.450000 0.000000 0.000000
								CHANNELS 3 Zrotation Yrotation Xrotation
								JOINT LeftHandIndex1
								{
									OFFSET 0.750000 0.000000 0.000000
									CHANNELS 3 Zrotation Yrotation Xrotation
									End Site
									{
										OFFSET 0.000000 0.000000 0.000000
									}
								}
							}
						}
					}
				}
				JOINT RightShoulder
				{
					OFFSET 0.000000 0.000000 0.000000
					CHANNELS 3 Zrotation Yrotation Xrotation
					JOINT RightArm
					{
						OFFSET -2.700000 1.550000 -0.730000
						CHANNELS 3 Zrotation Yrotation Xrotation
						JOINT RightForeArm
						{
							OFFSET -5.450000 0.000000 0.000000
							CHANNELS 3 Zrotation Yrotation Xrotation
							JOINT RightHand
							{
								OFFSET -3.450000 0.000000 0.000000
								CHANNELS 3 Zrotation Yrotation Xrotation
								JOINT RightHandIndex1
								{
									OFFSET -0.750000 0.000000 0.000000
									CHANNELS 3 Zrotation Yrotation Xrotation
									End Site
									{
										OFFSET 0.000000 0.000000 0.000000
									}
								}
							}
						}
					}
				}
			}
		}
	}
}
MOTION
Frames: 13
Frame Time: 0.016667
-0.257860 17.138960 -6.770950 -0.922675 -8.923133 -9.662418 -15.647815 14.956281 3.049029 3.772075 -0.879104 -25.024514 5.860944 3.478065 16.814130 -0.735235 3.245681 3.291563 -0.518750 -0.769290 -0.262940 17.605817 -10.064071 2.772887 -5.008823 -0.048454 -1.601450 13.472301 -8.144749 16.744440 -0.207966 -4.556042 2.913934 -0.363680 0.380830 -0.050210 -1.786735 -5.818964 -7.863227 7.268568 11.357610 27.321516 22.353846 9.451665 13.015555 -6.586726 -4.991873 -15.583172 -18.510546 19.059797 46.421004 0.970490 17.256530 0.958630 6.100686 -9.198286 9.633074 7.843306 5.255925 0.683655 7.326145 -15.207934 -0.268968 -3.800537 3.081214 0.591080 0.158660 -0.215700 -0.282800 9.133262 13.006317 10.103485 54.413027 -8.001481 -20.851619 4.288551 41.546349 -1.398512 1.932036 -1.048739 -0.530910 0.277750 0.616170 -0.305950 
-0.252600 17.143320 -6.758110 -1.409408 -7.581361 -7.867419 -15.672991 14.786518 3.099987 4.323930 -0.856469 -24.073463 4.489086 3.311419 11.648708 -0.763607 2.925089 3.424161 -0.541610 -0.798670 -0.262340 17.596590 -9.992405 2.829669 -4.884964 -0.068842 -2.372303 14.686727 -7.977738 14.616179 -0.189483 -4.415987 2.957884 -0.385120 0.374800 -0.049000 -1.767582 -5.675664 -7.943921 6.998378 10.911101 24.603605 22.859430 8.393038 12.608193 -6.129317 -4.574392 -15.693105 -17.505764 19.113135 47.377293 0.893710 17.815960 1.333740 5.765955 -9.515462 9.470386 8.919470 4.560729 1.045369 5.746785 -11.649340 -0.108159 -3.791798 2.961669 0.600940 0.157060 -0.210210 -0.296790 8.658755 12.622978 10.155577 55.083987 -8.456085 -20.915825 4.238046 41.286852 -1.395194 1.953150 -1.017399 -0.536050 0.267550 0.624730 -0.314280 
-0.256020 17.149770 -6.748640 -1.542771 -6.515232 -6.580930 -15.718381 14.621951 3.169298 4.776291 -0.922383 -23.181335 3.170806 3.205767 7.783671 -0.774599 2.849572 3.470343 -0.567200 -0.839050 -0.268430 17.577794 -9.891035 2.853128 -4.887743 -0.134758 -2.672962 15.476684 -7.742914 12.609203 -0.170433 -4.319669 2.991561 -0.404110 0.387670 -0.038260 -1.697884 -5.613781 -8.009591 6.166761 10.850741 22.643711 23.596651 7.730395 12.420650 -6.009624 -4.298740 -15.634097 -16.530655 18.970683 47.231758 0.757740 18.156580 1.400640 6.034634 -9.489333 9.441587 9.075169 3.826359 1.244307 4.965799 -9.900351 -0.097461 -3.808527 2.898277 0.607860 0.169380 -0.217920 -0.307620 8.298896 12.044000 10.040623 55.374414 -8.660120 -20.896950 4.689284 41.328675 -1.235995 1.956044 -1.004726 -0.548900 0.260930 0.641660 -0.321930 
-0.259720 17.157090 -6.748980 -1.281772 -5.974850 -5.984074 -15.771217 14.550672 3.235650 4.863728 -0.993781 -22.138295 2.315264 3.100245 5.035141 -0.783633 2.897444 3.472721 -0.583980 -0.878800 -0.265960 17.548047 -9.772379 2.833963 -5.270327 -0.140039 -2.693486 15.877627 -7.584524 11.392979 -0.156748 -4.282415 3.000155 -0.416300 0.399240 -0.022070 -1.593001 -5.749739 -8.047576 5.301427 10.858679 22.008305 24.043541 7.488205 12.190893 -6.054545 -4.423797 -15.404506 -16.698542 18.940447 46.317253 -0.073110 18.357130 1.050820 5.997118 -9.156248 9.338972 8.996662 3.374943 1.368879 4.691673 -8.927495 -0.144706 -3.827580 2.868019 0.618530 0.182360 -0.227890 -0.318240 8.518057 11.692824 9.940944 55.239414 -8.683854 -20.968203 4.467419 41.819653 -1.256987 1.943030 -1.007746 -0.564310 0.256420 0.660500 -0.333990 
-0.263780 17.168480 -6.757910 -0.720120 -5.709414 -5.820619 -15.843897 14.535096 3.295300 4.517574 -1.068211 -20.994377 1.927348 2.973503 2.897679 -0.776216 2.951215 3.469250 -0.579250 -0.884810 -0.250850 17.498230 -9.657540 2.781884 -5.821120 -0.120651 -2.626965 15.888522 -7.454377 10.772043 -0.152999 -4.252699 3.000204 -0.415120 0.391470 -0.011170 -1.427089 -5.970481 -8.059552 4.050666 11.205074 21.814838 24.707181 7.550166 12.187545 -6.175116 -4.496998 -15.095186 -16.762816 18.781636 45.503790 -0.845060 18.478120 0.238850 5.894472 -8.890989 9.182998 9.089317 2.879152 1.450324 4.554806 -8.328662 -0.172970 -3.820220 2.867453 0.625940 0.181030 -0.224850 -0.322990 8.962001 11.549771 9.916376 54.848861 -8.720641 -21.082897 3.965546 42.429611 -1.384185 1.930397 -1.025528 -0.566580 0.249710 0.661800 -0.343350 
-0.264630 17.179850 -6.766510 -0.360426 -5.493053 -5.727995 -15.887659 14.500018 3.351666 4.264575 -1.116846 -20.041925 1.754249 2.851567 1.061911 -0.756794 3.006000 3.468520 -0.587340 -0.894020 -0.250550 17.471510 -9.585912 2.750749 -6.142952 -0.132025 -2.509286 15.873311 -7.361781 10.295078 -0.146744 -4.236273 3.012919 -0.420020 0.396660 -0.012190 -1.333855 -6.076317 -8.084431 3.533467 11.366149 21.673540 24.979201 7.593118 12.190946 -6.162906 -4.434765 -14.988152 -16.690215 18.577847 45.531528 -1.367680 18.576680 0.229800 5.405962 -9.049309 9.037129 9.496438 2.430170 1.496207 4.407323 -7.687842 -0.184663 -3.827135 2.834050 0.623390 0.189140 -0.228490 -0.325110 9.487269 11.752063 10.048730 54.741362 -8.837007 -21.369603 2.884215 43.183619 -1.746161 1.915542 -1.030005 -0.570720 0.254490 0.664380 -0.345390 
-0.265860 17.184410 -6.768790 -0.271007 -5.270085 -5.518593 -15.915854 14.433564 3.401372 4.223437 -1.173040 -19.426735 1.555602 2.754775 -0.417714 -0.759021 3.074254 3.450109 -0.607160 -0.925900 -0.251980 17.459490 -9.537985 2.739098 -6.206272 -0.172690 -2.404672 15.855757 -7.255508 9.709367 -0.138047 -4.211702 3.017109 -0.429700 0.395730 -0.014600 -1.281969 -6.074807 -8.113688 3.356116 11.453137 21.248195 25.213347 7.511649 12.337342 -6.036379 -4.343350 -15.061588 -16.548853 18.354576 45.802349 -1.855850 18.646750 0.257650 5.305181 -9.256268 9.034011 9.527991 1.904674 1.548926 4.323961 -7.099590 -0.214443 -3.842447 2.789841 0.636920 0.190240 -0.233650 -0.339050 9.407773 11.862202 10.180503 54.986520 -8.909481 -21.743885 2.331731 44.211524 -1.980795 1.901849 -1.024433 -0.588400 0.255870 0.681560 -0.358670 
-0.262780 17.186810 -6.780860 -0.255723 -4.746647 -5.285196 -15.918014 14.362828 3.456282 3.917427 -1.303574 -19.100321 1.633726 2.623272 -1.678001 -0.747835 3.099672 3.455553 -0.606080 -0.931780 -0.251740 17.468281 -9.516155 2.734569 -6.208671 -0.158313 -2.569408 15.945651 -7.206835 9.458680 -0.136775 -4.198897 3.017912 -0.429670 0.401590 -0.009970 -1.302056 -6.030550 -8.143087 3.558441 11.238903 21.079392 25.197578 7.278287 12.325541 -6.045127 -4.420714 -15.085506 -16.699466 18.204624 45.703618 -2.036950 18.504730 0.618830 5.091790 -9.403614 8.997882 9.555966 1.586466 1.556737 4.449400 -6.835314 -0.237852 -3.856243 2.781771 0.632650 0.194310 -0.238160 -0.332380 9.619162 12.027656 10.223393 54.445420 -8.872502 -21.479476 2.949066 44.120517 -1.776595 1.900058 -1.039183 -0.589680 0.254780 0.680580 -0.358020 
-0.258580 17.179660 -6.794000 -0.377020 -4.508909 -4.711658 -15.904501 14.253241 3.508296 3.874124 -1.451308 -19.268539 1.489015 2.515501 -2.704680 -0.735089 3.103114 3.458835 -0.601440 -0.921920 -0.260790 17.493343 -9.519067 2.732262 -5.936054 -0.093828 -3.141789 15.937231 -7.121096 9.336030 -0.123994 -4.152082 3.033967 -0.423880 0.411530 -0.003420 -1.359010 -5.883432 -8.153351 3.799809 11.042139 20.423191 25.362566 6.930734 12.356607 -6.081347 -4.692682 -15.052406 -17.166267 18.387844 45.192826 -1.941010 18.374870 0.824850 5.126797 -9.219440 8.927458 9.184086 1.261108 1.566282 4.582220 -6.850100 -0.245484 -3.870884 2.791258 0.618320 0.201810 -0.242030 -0.323410 9.641679 11.968256 10.251701 53.455199 -8.980275 -21.092185 4.927206 44.581355 -1.136020 1.896755 -1.065017 -0.581890 0.252680 0.677690 -0.347040 
-0.258230 17.172690 -6.816840 -0.612657 -4.232660 -4.445175 -15.877818 14.176901 3.528803 3.952845 -1.503274 -19.453386 1.506514 2.464654 -3.200406 -0.733083 3.098498 3.470390 -0.604190 -0.916530 -0.264590 17.525718 -9.551282 2.733377 -5.504768 -0.027674 -3.640918 15.762622 -7.065775 9.540903 -0.105774 -4.107514 3.055808 -0.416890 0.425080 -0.016860 -1.445151 -5.714057 -8.149943 4.299888 10.914769 20.164569 25.371939 6.694202 12.691779 -6.151831 -4.830574 -15.024316 -17.248092 18.275460 44.751696 -1.971990 18.218550 0.939380 5.743148 -8.984158 8.906782 8.622449 0.714646 1.610131 4.645612 -7.081029 -0.227416 -3.882645 2.784984 0.602200 0.210320 -0.255050 -0.320660 9.065324 11.747509 10.188286 52.484025 -8.869852 -20.653239 8.245585 45.455241 -0.090699 1.894394 -1.087790 -0.587590 0.268420 0.675840 -0.341630 
-0.264760 17.172630 -6.844180 -0.790184 -4.140683 -4.593698 -15.864962 14.163421 3.535104 4.260441 -1.434400 -19.442717 1.200051 2.504997 -3.260833 -0.716533 3.112002 3.474624 -0.600160 -0.904190 -0.266770 17.538551 -9.580582 2.725580 -4.958223 0.008721 -3.854860 15.226643 -6.995042 9.971136 -0.092550 -4.060581 3.085405 -0.411280 0.431230 -0.029610 -1.480972 -5.625154 -8.150491 4.579503 10.906384 20.446948 25.266775 6.651405 13.156480 -6.108332 -4.731091 -15.170180 -16.750314 17.964689 44.756851 -1.922690 18.135570 1.280770 6.549635 -9.036161 8.990532 8.367826 0.932734 1.546272 4.503298 -8.185559 -0.152110 -3.874367 2.816471 0.586340 0.215340 -0.262770 -0.310190 8.092722 11.732324 10.214942 51.544446 -8.659171 -20.220475 13.051361 46.900515 1.470167 1.892495 -1.131520 -0.586510 0.277300 0.664430 -0.336070 
-0.267250 17.171320 -6.873890 -1.083918 -3.862698 -5.230925 -15.871852 14.222293 3.515470 4.779229 -1.247892 -19.323941 0.843052 2.618332 -2.881559 -0.696764 3.150111 3.465536 -0.593480 -0.891460 -0.265660 17.530586 -9.561015 2.730689 -4.406783 -0.061626 -3.392652 14.887873 -6.973472 10.184785 -0.101251 -4.070666 3.086218 -0.405870 0.429160 -0.030130 -1.464025 -5.711954 -8.164120 4.997608 10.842382 21.466948 25.305234 6.662408 13.762792 -6.113811 -4.643931 -15.268499 -16.195603 17.308718 44.227040 -2.429200 17.955630 1.169610 7.727804 -8.984424 9.094182 7.823502 1.208975 1.404782 4.205144 -10.347481 -0.033159 -3.843962 2.918063 0.569080 0.218140 -0.264520 -0.300840 6.816549 11.578430 10.188074 50.395590 -8.401773 -19.845114 18.619448 49.206257 3.527146 1.886932 -1.205028 -0.577850 0.275240 0.653890 -0.330600 
-0.270580 17.171660 -6.919540 -1.428592 -3.573211 -6.445453 -15.851644 14.342287 3.458013 5.496554 -0.923992 -19.129537 0.371306 2.849500 -1.676865 -0.686877 3.190120 3.455037 -0.573540 -0.864020 -0.252370 17.536893 -9.565955 2.744253 -4.004133 -0.108860 -2.668024 14.656748 -7.083358 10.859158 -0.126280 -4.139795 3.070435 -0.392320 0.419030 -0.034510 -1.509629 -5.822395 -8.170636 5.969425 10.737149 23.695234 24.574709 7.051455 14.466657 -6.158226 -4.393734 -15.336861 -15.035017 16.261880 43.087330 -3.012880 17.625970 0.257730 9.554383 -8.863152 9.129285 7.428180 1.911896 0.971566 4.081076 -14.555824 0.111433 -3.791585 3.111438 0.558260 0.216080 -0.262700 -0.289910 4.822022 11.311578 10.143068 50.081392 -7.899586 -19.717148 25.122143 52.589701 6.252488 1.878317 -1.292951 -0.569710 0.277190 0.634440 -0.330110 
